<svg width="100" height="100" viewBox="0 0 100 100" fill="none" xmlns="http://www.w3.org/2000/svg">
<rect x="1.36365" y="1.36365" width="96.7273" height="96.7273" rx="32" fill="white" fill-opacity="0.1"/>
<rect x="1.36365" y="1.36365" width="96.7273" height="96.7273" rx="32" stroke="white" stroke-opacity="0.1" stroke-width="2.72727"/>
<g clip-path="url(#clip0_8_461)">
<path fill-rule="evenodd" clip-rule="evenodd" d="M49.7273 68.3939C50.3805 68.394 51.0109 68.6338 51.499 69.0679C51.9871 69.5019 52.2989 70.0999 52.3753 70.7486L52.394 71.0606V73.7273C52.3932 74.407 52.133 75.0607 51.6664 75.5549C51.1998 76.0492 50.5621 76.3466 49.8836 76.3864C49.2051 76.4262 48.537 76.2055 48.0158 75.7692C47.4946 75.333 47.1596 74.7142 47.0793 74.0393L47.0607 73.7273V71.0606C47.0607 70.3534 47.3416 69.6751 47.8417 69.175C48.3418 68.6749 49.0201 68.3939 49.7273 68.3939ZM36.5273 62.9273C37.0273 63.4274 37.3081 64.1055 37.3081 64.8126C37.3081 65.5197 37.0273 66.1979 36.5273 66.6979L34.642 68.5833C34.396 68.838 34.1018 69.0411 33.7764 69.1809C33.4511 69.3206 33.1012 69.3942 32.7471 69.3973C32.393 69.4004 32.0418 69.3329 31.7141 69.1988C31.3864 69.0647 31.0887 68.8667 30.8383 68.6163C30.5879 68.3659 30.3899 68.0682 30.2558 67.7405C30.1217 67.4128 30.0543 67.0616 30.0573 66.7075C30.0604 66.3535 30.134 66.0035 30.2737 65.6782C30.4135 65.3529 30.6166 65.0586 30.8713 64.8126L32.7567 62.9273C33.2567 62.4274 33.9349 62.1465 34.642 62.1465C35.3491 62.1465 36.0273 62.4274 36.5273 62.9273ZM66.698 62.9273L68.5833 64.8126C69.0691 65.3155 69.3379 65.9892 69.3318 66.6883C69.3257 67.3875 69.0453 68.0564 68.5509 68.5508C68.0564 69.0452 67.3876 69.3257 66.6884 69.3317C65.9892 69.3378 65.3156 69.069 64.8127 68.5833L62.9273 66.6979C62.4416 66.195 62.1728 65.5214 62.1789 64.8222C62.185 64.123 62.4654 63.4542 62.9598 62.9598C63.4542 62.4653 64.1231 62.1849 64.8223 62.1788C65.5215 62.1727 66.1951 62.4415 66.698 62.9273ZM51.3727 23.0606C52.6728 23.0603 53.9283 23.535 54.9031 24.3953C55.8779 25.2557 56.5048 26.4425 56.666 27.7326L57.6793 35.8393C60.7398 37.5921 63.1353 40.3071 64.4935 43.562C65.8516 46.8169 66.0962 50.4294 65.1893 53.8376C64.2824 57.2459 62.2747 60.2591 59.4785 62.4085C56.6823 64.558 53.2542 65.7233 49.7273 65.7233C46.2004 65.7233 42.7724 64.558 39.9762 62.4085C37.18 60.2591 35.1723 57.2459 34.2654 53.8376C33.3585 50.4294 33.6031 46.8169 34.9612 43.562C36.3193 40.3071 38.7149 37.5921 41.7753 35.8393L42.7887 27.7326C42.9499 26.4425 43.5768 25.2557 44.5516 24.3953C45.5264 23.535 46.7819 23.0603 48.082 23.0606H51.3727ZM28.394 47.0606C29.1012 47.0606 29.7795 47.3416 30.2796 47.8417C30.7797 48.3418 31.0607 49.02 31.0607 49.7273C31.0607 50.4345 30.7797 51.1128 30.2796 51.6129C29.7795 52.113 29.1012 52.3939 28.394 52.3939H25.7273C25.0201 52.3939 24.3418 52.113 23.8417 51.6129C23.3416 51.1128 23.0607 50.4345 23.0607 49.7273C23.0607 49.02 23.3416 48.3418 23.8417 47.8417C24.3418 47.3416 25.0201 47.0606 25.7273 47.0606H28.394ZM73.7273 47.0606C74.4346 47.0606 75.1129 47.3416 75.613 47.8417C76.1131 48.3418 76.394 49.02 76.394 49.7273C76.394 50.4345 76.1131 51.1128 75.613 51.6129C75.1129 52.113 74.4346 52.3939 73.7273 52.3939H71.0607C70.3534 52.3939 69.6751 52.113 69.1751 51.6129C68.675 51.1128 68.394 50.4345 68.394 49.7273C68.394 49.02 68.675 48.3418 69.1751 47.8417C69.6751 47.3416 70.3534 47.0606 71.0607 47.0606H73.7273ZM68.5833 30.8739C69.0833 31.374 69.3641 32.0522 69.3641 32.7593C69.3641 33.4664 69.0833 34.1445 68.5833 34.6446L66.698 36.5299C66.452 36.7846 66.1578 36.9878 65.8324 37.1275C65.5071 37.2673 65.1571 37.3409 64.8031 37.3439C64.449 37.347 64.0979 37.2795 63.7701 37.1455C63.4424 37.0114 63.1447 36.8134 62.8943 36.563C62.6439 36.3126 62.4459 36.0149 62.3118 35.6872C62.1777 35.3594 62.1103 35.0083 62.1133 34.6542C62.1164 34.3001 62.19 33.9502 62.3297 33.6249C62.4695 33.2995 62.6726 33.0053 62.9273 32.7593L64.8127 30.8739C65.3127 30.374 65.9909 30.0932 66.698 30.0932C67.4051 30.0932 68.0833 30.374 68.5833 30.8739ZM34.642 30.8739L36.5273 32.7593C37.0011 33.2645 37.2597 33.9342 37.2485 34.6267C37.2372 35.3191 36.957 35.9801 36.4671 36.4696C35.9772 36.9592 35.316 37.239 34.6235 37.2497C33.931 37.2605 33.2615 37.0014 32.7567 36.5273L30.8713 34.6419C30.3976 34.1367 30.139 33.467 30.1502 32.7746C30.1615 32.0821 30.4417 31.4211 30.9316 30.9316C31.4215 30.442 32.0826 30.1623 32.7751 30.1515C33.4676 30.1408 34.1371 30.3998 34.642 30.8739ZM51.3727 28.3939H48.082L47.4153 33.7273H52.0393L51.3727 28.3939Z" fill="#FDAD15"/>
</g>
<defs>
<clipPath id="clip0_8_461">
<rect width="64" height="64" fill="white" transform="translate(17.7273 17.7273)"/>
</clipPath>
</defs>
</svg>
